<svg width="36" height="35" viewBox="0 0 36 35" fill="none" xmlns="http://www.w3.org/2000/svg">
<path d="M18.6667 0C27.8717 0 35.3333 7.83475 35.3333 17.5C35.3333 27.1652 27.8717 35 18.6667 35C9.46167 35 2 27.1652 2 17.5C2 7.83475 9.46167 0 18.6667 0ZM18.6667 3.5C15.1304 3.5 11.7391 4.975 9.23858 7.60051C6.73809 10.226 5.33333 13.787 5.33333 17.5C5.33333 21.213 6.73809 24.774 9.23858 27.3995C11.7391 30.025 15.1304 31.5 18.6667 31.5C22.2029 31.5 25.5943 30.025 28.0948 27.3995C30.5952 24.774 32 21.213 32 17.5C32 13.787 30.5952 10.226 28.0948 7.60051C25.5943 4.975 22.2029 3.5 18.6667 3.5ZM18.6667 7C19.0749 7.00006 19.4689 7.15742 19.774 7.44225C20.079 7.72708 20.2739 8.11956 20.3217 8.54525L20.3333 8.75V16.7755L24.845 21.5128C25.1439 21.8277 25.3175 22.2503 25.3304 22.6947C25.3433 23.1391 25.1946 23.572 24.9146 23.9055C24.6345 24.239 24.2441 24.448 23.8225 24.4902C23.401 24.5324 22.98 24.4045 22.645 24.1325L22.4883 23.9872L17.4883 18.7372C17.2293 18.465 17.0629 18.1108 17.015 17.7292L17 17.5V8.75C17 8.28587 17.1756 7.84075 17.4882 7.51256C17.8007 7.18437 18.2246 7 18.6667 7Z" fill="black"/>
</svg>
